<svg width="668" height="1413" viewBox="0 0 668 1413" fill="none" xmlns="http://www.w3.org/2000/svg">
<g filter="url(#filter0_i_254_141)">
<path d="M635.5 0L640.655 45.5C635.286 125.841 641.42 293.817 645.864 374.122L640.655 548.57C638.212 548.569 663.1 682.661 621.123 752.961C579.146 823.261 567.735 931.315 567.735 931.315C567.735 931.315 596.513 972.797 604.195 996.407C611.303 1018.26 596.972 1025.37 604.195 1047.18C613.602 1075.58 631.54 1109 631.54 1109C631.54 1109 620.631 1147.15 626.331 1161.74C630.718 1172.97 640.655 1189.08 640.655 1189.08L668 1225.53L661 1319.5L631.54 1394.77L596.382 1413C596.382 1413 562.955 1408.84 541.692 1405.19C521.248 1401.68 509.788 1399.57 489.606 1394.77C474.245 1391.12 465.57 1389.2 450.542 1384.36C435.529 1379.52 427.404 1375.95 412.78 1370.04C398.416 1364.24 390.368 1360.94 376.32 1354.42C362.914 1348.19 355.405 1344.64 342.464 1337.49C314.559 1322.09 299.814 1311.62 274.753 1291.93C249.283 1271.92 235.271 1259.98 213.552 1235.95C203.38 1224.7 197.921 1218.13 188.811 1206.01C179.579 1193.71 175.206 1186.25 166.675 1173.46C157.909 1160.32 152.791 1153.08 144.538 1139.61C135.971 1125.63 131.245 1117.72 123.704 1103.16C109.978 1076.66 93.7546 1032.86 93.7546 1032.86C93.7546 1032.86 85.5884 1010.72 80.7331 996.407C75.9303 982.247 73.1183 974.334 69.0138 959.956C61.1577 932.434 58.4963 916.514 53.3881 888.354C48.3448 860.551 45.9634 844.849 42.9709 816.752C38.2817 772.723 40.3666 704.793 37.7624 703.491C35.1581 702.189 27.4481 699.035 22.1366 694.378C16.4017 689.35 14.1441 685.409 10.4173 678.755C6.17178 671.175 4.67663 666.363 2.60447 657.926C0.0464177 647.51 0.0182285 641.312 0.000186303 630.587C-0.0363813 608.85 5.31658 597.039 10.4173 575.909C15.1369 556.358 18.0823 545.418 24.7409 526.439C30.5546 509.868 34.4214 500.775 41.6688 484.78C48.7067 469.247 53.358 460.867 61.201 445.724L62.3753 443.456C71.4885 425.857 76.9523 415.306 87.2438 397.555C98.354 378.393 105.076 367.93 117.193 349.387C126.604 334.985 131.944 326.942 141.934 312.935C152.267 298.447 158.172 290.388 169.279 276.483C169.279 276.483 198.759 241.747 218.76 220.504C237.984 200.086 248.739 188.537 269.544 169.731C292.343 149.124 305.922 138.38 330.745 120.261C342.252 111.862 348.772 107.23 360.694 99.4314C371.204 92.5567 377.282 88.9893 388.039 82.5073C409.107 69.8119 420.614 62.0319 442.729 51.2629C442.729 51.2629 479.379 34.3886 503.93 26.5277C523.428 20.2846 534.606 17.3636 554.714 13.5092C573.855 9.83994 635.5 0 635.5 0Z" fill="#773715"/>
</g>
<defs>
<filter id="filter0_i_254_141" x="-28" y="0" width="696" height="1417" filterUnits="userSpaceOnUse" color-interpolation-filters="sRGB">
<feFlood flood-opacity="0" result="BackgroundImageFix"/>
<feBlend mode="normal" in="SourceGraphic" in2="BackgroundImageFix" result="shape"/>
<feColorMatrix in="SourceAlpha" type="matrix" values="0 0 0 0 0 0 0 0 0 0 0 0 0 0 0 0 0 0 127 0" result="hardAlpha"/>
<feOffset dx="-28" dy="4"/>
<feGaussianBlur stdDeviation="38.5"/>
<feComposite in2="hardAlpha" operator="arithmetic" k2="-1" k3="1"/>
<feColorMatrix type="matrix" values="0 0 0 0 0 0 0 0 0 0 0 0 0 0 0 0 0 0 0.25 0"/>
<feBlend mode="normal" in2="shape" result="effect1_innerShadow_254_141"/>
</filter>
</defs>
</svg>
