<svg width="736" height="1421" viewBox="0 0 736 1421" fill="none" xmlns="http://www.w3.org/2000/svg">
<g filter="url(#filter0_i_254_140)">
<path d="M71.6139 46V0.00216137C71.6139 0.00216137 98.6288 -0.111851 115.856 1.31624C115.856 1.31624 144.559 4.38558 162.7 7.88664C193.827 13.8938 210.912 19.5159 240.774 30.226C269.95 40.6896 285.974 47.7359 313.643 61.7639C348.069 79.2172 366.48 90.9771 398.224 113.013C425.697 132.085 440.4 143.875 465.888 165.576C500.787 195.29 518.844 213.806 550.468 247.049C584.149 282.455 603.397 302.294 632.446 341.663C661.509 381.051 678.553 403.445 698.809 448.104C709.657 472.022 714.451 486.072 722.231 511.179C727.422 527.932 731.994 537.101 733.942 554.544C735.366 567.293 735.906 574.721 733.942 587.396C732.475 596.868 732.045 602.668 727.436 611.05C723.93 617.426 721.432 621.035 715.725 625.504C709.975 630.007 701.411 630.761 698.809 633.389C696.206 636.017 696.11 697.561 692.303 738.515C687.896 785.919 685.218 812.584 676.688 859.411C668.659 903.483 663.76 928.292 650.663 971.108C636.319 1018 619.434 1059.15 605.12 1088.06C590.806 1116.97 547.866 1190.56 541.359 1198.44C534.853 1206.33 506.226 1240.49 506.226 1240.49C506.226 1240.49 482.427 1266.93 465.888 1282.54C449.822 1297.71 440.586 1306.07 422.947 1319.34C404.973 1332.86 394.39 1339.88 374.801 1350.88C356.126 1361.36 344.9 1365.81 325.355 1374.53C305.759 1383.27 295.002 1388.94 274.606 1395.56C253.247 1402.48 240.712 1404.57 218.653 1408.7C196.96 1412.76 184.639 1414.22 162.7 1416.58C142.935 1418.71 131.811 1419.67 111.952 1420.52C87.0749 1421.6 27.2221 1412.5 27.2221 1412.5C60.1865 1405.93 59.5558 1394.21 77.2526 1227.06C4.38303 1144.27 85.3802 1145.04 24.2222 1011C-36.9358 876.964 34.7224 804.5 53.7225 696C74.0076 580.163 71.6139 651.32 71.6139 229.5C71.6139 172.5 70.3127 124.906 71.6139 99.5V46Z" fill="#773715"/>
</g>
<defs>
<filter id="filter0_i_254_140" x="0" y="0" width="795.221" height="1424.61" filterUnits="userSpaceOnUse" color-interpolation-filters="sRGB">
<feFlood flood-opacity="0" result="BackgroundImageFix"/>
<feBlend mode="normal" in="SourceGraphic" in2="BackgroundImageFix" result="shape"/>
<feColorMatrix in="SourceAlpha" type="matrix" values="0 0 0 0 0 0 0 0 0 0 0 0 0 0 0 0 0 0 127 0" result="hardAlpha"/>
<feOffset dx="60" dy="4"/>
<feGaussianBlur stdDeviation="38.5"/>
<feComposite in2="hardAlpha" operator="arithmetic" k2="-1" k3="1"/>
<feColorMatrix type="matrix" values="0 0 0 0 0 0 0 0 0 0 0 0 0 0 0 0 0 0 0.25 0"/>
<feBlend mode="normal" in2="shape" result="effect1_innerShadow_254_140"/>
</filter>
</defs>
</svg>
